HIERARCHY
ROOT Hips
{
	OFFSET 0.000000 0.000000 0.000000 
	CHANNELS 6 Xposition Yposition Zposition Yrotation Zrotation Xrotation 
	JOINT Lumbar
	{
		OFFSET 0.000000 0.000000 0.000000 
		CHANNELS 3 Zrotation Xrotation Yrotation
		JOINT Neck
		{
			OFFSET 0.000000 0.445665 0.000000 
			CHANNELS 3 Zrotation Xrotation Yrotation
			End Site
			{
				OFFSET 0.000000 0.227535 0.000000 
			}
		}
		JOINT RightShoulder
		{
			OFFSET 0.019635 0.377685 0.194865 
			CHANNELS 3 Zrotation Xrotation Yrotation
			JOINT RightElbow
			{
				OFFSET 0.000000 -0.243375 0.000000 
				CHANNELS 2 Zrotation Yrotation
				JOINT RightWrist
				{
					OFFSET 0.000000 -0.264825 0.000000 
					CHANNELS 2 Zrotation Xrotation
					End Site
					{
						OFFSET 0.006600 -0.176220 0.000990 
					}
				}
			}
		}
		JOINT LeftShoulder
		{
			OFFSET 0.019635 0.377685 -0.194865 
			CHANNELS 3 Zrotation Xrotation Yrotation
			JOINT LeftElbow
			{
				OFFSET 0.000000 -0.243375 0.000000 
				CHANNELS 2 Zrotation Yrotation
				JOINT LeftWrist
				{
					OFFSET 0.000000 -0.264825 0.000000 
					CHANNELS 2 Zrotation Xrotation
					End Site
					{
						OFFSET 0.006600 -0.176220 -0.000990 
					}
				}
			}
		}
	}
	JOINT RightHip
	{
		OFFSET 0.052140 -0.069960 0.075570 
		CHANNELS 3 Zrotation Xrotation Yrotation
		JOINT RightKnee
		{
			OFFSET 0.000000 -0.402270 0.000000 
			CHANNELS 1 Zrotation
			JOINT RightAnkle
			{
				OFFSET 0.000000 -0.404085 0.000000 
				CHANNELS 3 Zrotation Xrotation Yrotation
				End Site
				{
					OFFSET 0.204105 -0.089430 0.008415 
				}
			}
		}
	}
	JOINT LeftHip
	{
		OFFSET 0.052140 -0.069960 -0.075570 
		CHANNELS 3 Zrotation Xrotation Yrotation
		JOINT LeftKnee
		{
			OFFSET 0.000000 -0.402270 0.000000 
			CHANNELS 1 Zrotation
			JOINT LeftAnkle
			{
				OFFSET 0.000000 -0.404085 0.000000 
				CHANNELS 3 Zrotation Xrotation Yrotation
				End Site
				{
					OFFSET 0.204105 -0.089430 -0.008415 
				}
			}
		}
	}
}
MOTION
Frames: 31
Frame Time: 0.02
0.10103 0.08183 0.0152 173.56688 0 -9.4069 -19.97567 14.33776 13.96944 43.35359 -16.53842 5.79696 0.3774 14.41756 24.40805 23.35445 71.38102 5.59672 -9.6264 -23.34707 5.98088 -52.27793 85.52808 -110.57423 40.81083 -0.2578 82.23486 11.06484 -7.96122 2.00533 -22.4166 0.27402 -11.72165 126.40687 -5.10337 40.23639 -117.94098 -0.67278 0.81809 19.06154
0.10106 0.08176 0.01524 173.57101 0 -9.41136 -19.9461 14.30227 13.86989 43.43277 -16.53549 5.93061 0.30604 14.44492 24.30272 23.3201 71.07931 5.47879 -9.80318 -23.3487 6.00424 -52.27829 85.51906 -111.03217 40.78998 -0.32726 82.23838 11.05824 -7.98027 2.00533 -22.41037 0.29073 -11.7115 126.24205 -4.9078 40.37681 -117.93283 -0.71936 1.11313 18.74594
0.10108 0.08168 0.01526 173.56658 0 -9.41245 -19.92624 14.25887 13.76938 43.56236 -16.58743 6.11894 0.19376 14.53276 24.23053 23.31637 70.36447 5.42108 -10.04223 -23.38491 6.08957 -52.27864 85.54766 -111.42972 40.95407 -0.3828 82.2438 11.06068 -8.06029 2.00533 -22.4131 0.30563 -11.65172 126.03301 -4.66352 40.55298 -117.92285 -0.76057 1.489 18.34494
0.1011 0.08161 0.01529 173.56614 0 -9.41533 -19.90222 14.21934 13.6706 43.66836 -16.61361 6.27982 0.10008 14.59177 24.14449 23.29794 69.8578 5.33869 -10.24574 -23.40865 6.14478 -52.27903 85.56119 -111.85114 41.02992 -0.44432 82.24811 11.05892 -8.10844 2.00533 -22.41162 0.31896 -11.61809 125.85048 -4.44874 40.70766 -117.91386 -0.80322 1.81688 17.99481
0.10114 0.08153 0.01532 173.56559 0 -9.41729 -19.87746 14.17873 13.56664 43.77853 -16.64452 6.45309 0.00431 14.65603 24.05286 23.2825 69.26775 5.24745 -10.47883 -23.42197 6.20921 -52.27915 85.56797 -112.28695 41.12024 -0.5076 82.25329 11.05714 -8.1721 2.00533 -22.41006 0.34193 -11.57116 125.6409 -4.20324 40.88447 -117.90403 -0.85029 2.19239 17.59381
0.10115 0.08146 0.01534 173.56318 0 -9.42029 -19.85648 14.13848 13.47345 43.89139 -16.67822 6.61296 -0.09596 14.72374 23.98083 23.26831 68.75224 5.18781 -10.66572 -23.46373 6.26873 -52.27986 85.59671 -112.6783 41.22533 -0.56371 82.25714 11.05764 -8.21807 2.00533 -22.41084 0.34518 -11.53978 125.47703 -4.00994 41.02379 -117.89561 -0.88679 2.48804 17.27827
0.10111 0.08145 0.01532 173.55698 0 -9.42719 -19.84289 14.10098 13.40639 44.00044 -16.70478 6.72258 -0.19929 14.78771 23.95606 23.24907 68.54354 5.20279 -10.70677 -23.57792 6.3001 -52.28233 85.68119 -112.96647 41.32915 -0.60435 82.25723 11.0631 -8.20846 2.0053 -22.41862 0.28666 -11.55917 125.45208 -3.97401 41.04911 -117.89111 -0.89545 2.54045 17.22273
0.10105 0.08146 0.0153 173.54922 0 -9.43521 -19.83289 14.06415 13.3508 44.11005 -16.73222 6.81652 -0.30526 14.85281 23.9498 23.23028 68.42421 5.24669 -10.69982 -23.71856 6.32412 -52.28538 85.78548 -113.21115 41.44136 -0.63805 82.25588 11.0705 -8.17792 2.00528 -22.42819 0.20969 -11.59636 125.47449 -3.99215 41.03557 -117.88823 -0.89355 2.50989 17.25594
0.101 0.08145 0.01527 173.54264 0 -9.44252 -19.82162 14.02712 13.29247 44.21859 -16.76014 6.91741 -0.40944 14.9165 23.93419 23.21195 68.26299 5.27578 -10.71695 -23.84519 6.35103 -52.28808 85.87767 -113.47288 41.54814 -0.67431 82.25493 11.07646 -8.15188 2.00525 -22.4351 0.14636 -11.62799 125.47377 -3.98442 41.04119 -117.88487 -0.89648 2.51961 17.24608
0.10095 0.08145 0.01525 173.53397 0 -9.45046 -19.80905 13.98936 13.22385 44.33253 -16.78671 7.02122 -0.51793 14.98624 23.92332 23.1918 68.09079 5.31441 -10.72672 -23.98185 6.38214 -52.29114 85.98423 -113.74433 41.66812 -0.71261 82.25507 11.08491 -8.14866 2.00522 -22.44956 0.0612 -11.64746 125.47757 -3.97982 41.04254 -117.88023 -0.89932 2.52261 17.24342
0.1009 0.08145 0.01523 173.52918 0 -9.45752 -19.80005 13.95339 13.17919 44.4345 -16.81503 7.11418 -0.6171 15.04266 23.90701 23.17522 67.97057 5.33878 -10.73954 -24.10299 6.40178 -52.2936 86.06509 -113.98547 41.76022 -0.74517 82.25266 11.08872 -8.09266 2.0052 -22.44929 0.01662 -11.69685 125.48468 -3.98302 41.04205 -117.87883 -0.89964 2.51722 17.24968
0.10081 0.08145 0.01523 173.53733 0 -9.46085 -19.79861 13.92237 13.19971 44.50463 -16.85275 7.18353 -0.69316 15.06347 23.86672 23.16774 67.95092 5.32058 -10.77292 -24.17828 6.39268 -52.29407 86.06991 -114.15851 41.77247 -0.76394 82.24275 11.07731 -7.8919 2.00522 -22.40192 0.09309 -11.8268 125.48131 -3.98692 41.05535 -117.88457 -0.89799 2.5235 17.24339
0.10072 0.08146 0.01524 173.54915 0 -9.46343 -19.80081 13.89316 13.24365 44.56214 -16.89118 7.24174 -0.75894 15.07032 23.82093 23.1638 67.98546 5.2862 -10.81059 -24.23625 6.37181 -52.29393 86.04808 -114.30201 41.75566 -0.77719 82.23044 11.06144 -7.63943 2.00525 -22.34063 0.21021 -11.98589 125.48099 -3.99807 41.06657 -117.89375 -0.89383 2.52175 17.24564
0.10064 0.08146 0.01524 173.55808 0 -9.46705 -19.80223 13.86305 13.27559 44.62435 -16.92572 7.30315 -0.82707 15.08227 23.78045 23.15854 68.01243 5.25605 -10.84579 -24.29964 6.35522 -52.29418 86.03833 -114.45598 41.75168 -0.79278 82.21976 11.04886 -7.41278 2.00527 -22.28971 0.30579 -12.13058 125.48523 -4.01159 41.07198 -117.90236 -0.88913 2.5129 17.25547
0.10052 0.08147 0.01525 173.57197 0 -9.46788 -19.80021 13.83324 13.31344 44.6912 -16.97482 7.37198 -0.90509 15.09938 23.72895 23.15214 67.97452 5.23922 -10.88175 -24.37417 6.34276 -52.29401 86.02919 -114.62051 41.74943 -0.80877 82.20682 11.03114 -7.17479 2.00531 -22.22221 0.41365 -12.28141 125.4675 -4.00462 41.10312 -117.907 -0.89077 2.54389 17.22285
0.10047 0.08147 0.01524 173.5766 0 -9.47419 -19.80602 13.80329 13.34469 44.74512 -16.99447 7.42283 -0.96008 15.10264 23.69863 23.1489 68.07813 5.19158 -10.91751 -24.42124 6.31919 -52.29452 86.01246 -114.75703 41.73688 -0.82276 82.19797 11.02289 -6.94946 2.00531 -22.1854 0.50586 -12.42534 125.49377 -4.03938 41.08248 -117.92048 -0.87922 2.49449 17.27589
0.10062 0.08149 0.01511 173.55323 0 -9.49712 -19.83391 13.77193 13.34929 44.7684 -16.92632 7.42748 -0.95359 15.06889 23.72966 23.15387 68.60613 5.05238 -10.95411 -24.3948 6.266 -52.29732 85.97899 -114.82 41.69978 -0.83216 82.20143 11.04319 -6.76264 2.00519 -22.24105 0.54459 -12.55015 125.65729 -4.20505 40.90345 -117.95964 -0.82791 2.19484 17.59539
0.10083 0.08151 0.01494 173.52068 0 -9.52538 -19.86931 13.74049 13.34683 44.77877 -16.82965 7.41443 -0.92437 15.02207 23.78173 23.16185 69.26597 4.88446 -10.99016 -24.34155 6.20242 -52.30076 85.93912 -114.85657 41.65382 -0.83982 82.209 11.07292 -6.59197 2.00503 -22.3273 0.56629 -12.66577 125.86208 -4.40941 40.67519 -118.00719 -0.76415 1.81987 17.99519
0.10101 0.08152 0.0148 173.49333 0 -9.55037 -19.90036 13.70948 13.34939 44.79368 -16.75026 7.40902 -0.90582 14.98265 23.82314 23.1682 69.83375 4.73646 -11.02503 -24.30168 6.1448 -52.30373 85.9036 -114.90783 41.61405 -0.84858 82.21438 11.09746 -6.42022 2.00487 -22.39665 0.59614 -12.78067 126.0364 -4.58376 40.4805 -118.0495 -0.70887 1.50058 18.3358
0.10122 0.08154 0.01464 173.46178 0 -9.57888 -19.93543 13.67684 13.34535 44.81356 -16.65285 7.4047 -0.88543 14.93662 23.8693 23.17572 70.53736 4.55921 -11.06592 -24.25615 6.08147 -52.30744 85.86114 -114.94705 41.56434 -0.8559 82.22101 11.12565 -6.22098 2.00477 -22.47799 0.62577 -12.91658 126.25864 -4.80893 40.23981 -118.09792 -0.64188 1.09349 18.76935
0.10138 0.08155 0.01451 173.43673 0 -9.60137 -19.96394 13.64758 13.3528 44.82042 -16.58592 7.39433 -0.86368 14.90142 23.91028 23.18152 70.99092 4.43594 -11.09425 -24.2163 6.02783 -52.30977 85.83187 -115.00501 41.53336 -0.8658 82.22607 11.14855 -6.08256 2.00455 -22.542 0.65112 -13.00706 126.39292 -4.93975 40.08156 -118.13559 -0.59596 0.84763 19.03233
0.10139 0.08158 0.01448 173.43211 0 -9.60575 -19.97175 13.62746 13.39598 44.79256 -16.61237 7.369 -0.84313 14.89955 23.93483 23.18152 70.70159 4.47169 -11.08659 -24.19855 6.00247 -52.30792 85.84161 -115.1253 41.55846 -0.88387 82.22572 11.15445 -6.1169 2.004 -22.54911 0.66999 -12.96639 126.25545 -4.77909 40.1782 -118.1412 -0.61483 1.10016 18.76843
0.10135 0.08162 0.01449 173.43428 0 -9.60394 -19.9728 13.61078 13.45046 44.75247 -16.67004 7.33868 -0.82217 14.90905 23.95298 23.17973 70.15954 4.5623 -11.06654 -24.18759 5.98743 -52.30469 85.86479 -115.2647 41.60244 -0.90451 82.22369 11.15474 -6.21067 2.00335 -22.53809 0.68468 -12.88153 126.03109 -4.52558 40.35703 -118.13574 -0.65478 1.51192 18.33599
0.10133 0.08165 0.01448 173.43315 0 -9.6051 -19.97743 13.59266 13.49812 44.71935 -16.71197 7.31244 -0.80183 14.91332 23.97205 23.17895 69.74614 4.62595 -11.05312 -24.17366 5.96844 -52.30223 85.88132 -115.39286 41.63652 -0.92361 82.22252 11.15766 -6.27156 2.00279 -22.53648 0.70039 -12.82214 125.85933 -4.32924 40.48784 -118.13556 -0.6826 1.82703 18.00551
0.10131 0.08168 0.01447 173.4326 0 -9.60579 -19.98026 13.57399 13.55251 44.67983 -16.75954 7.27809 -0.7788 14.91747 23.99998 23.17742 69.27916 4.69714 -11.03553 -24.15813 5.94616 -52.29919 85.89995 -115.53104 41.6759 -0.94424 82.22107 11.16055 -6.35715 2.00206 -22.53101 0.71946 -12.74024 125.63539 -4.07312 40.66055 -118.13465 -0.72031 2.23874 17.57417
0.10129 0.08171 0.01447 173.43257 0 -9.60593 -19.98507 13.55733 13.59582 44.65088 -16.80305 7.25946 -0.76168 14.92463 24.008 23.177 68.86199 4.76607 -11.02362 -24.14807 5.9331 -52.29699 85.9174 -115.65301 41.7088 -0.96229 82.21975 11.16207 -6.40599 2.00165 -22.52884 0.73049 -12.69416 125.49675 -3.91635 40.76795 -118.13246 -0.74316 2.49217 17.30754
0.1013 0.0817 0.01446 173.43243 0 -9.60594 -19.9974 13.54504 13.6044 44.65428 -16.82844 7.28734 -0.7602 14.93852 23.95943 23.17993 68.64404 4.81512 -11.03094 -24.15013 5.94485 -52.29764 85.92916 -115.72765 41.71976 -0.97275 82.2192 11.16095 -6.33238 2.0022 -22.5403 0.72268 -12.76365 125.63398 -4.07948 40.65943 -118.12993 -0.7149 2.23394 17.5742
0.10132 0.08169 0.01446 173.43264 0 -9.60559 -20.01182 13.53473 13.60165 44.66871 -16.84866 7.33095 -0.76491 14.9549 23.89153 23.18404 68.48439 4.86013 -11.0443 -24.15778 5.96526 -52.29912 85.93914 -115.78508 41.72353 -0.9805 82.21881 11.15863 -6.22108 2.00308 -22.55546 0.70665 -12.86952 125.85653 -4.34168 40.4853 -118.12636 -0.67186 1.81752 18.00556
0.10133 0.08169 0.01445 173.43265 0 -9.60549 -20.02502 13.52372 13.60512 44.67809 -16.8709 7.36623 -0.76748 14.9694 23.8344 23.1877 68.29739 4.90734 -11.05459 -24.16395 5.98052 -52.30006 85.94938 -115.8491 41.73022 -0.98939 82.21831 11.15698 -6.13093 2.00379 -22.56884 0.69285 -12.95512 126.02698 -4.54293 40.35179 -118.12291 -0.63897 1.49789 18.33607
0.10135 0.08168 0.01444 173.43298 0 -9.60488 -20.03923 13.51191 13.60476 44.68737 -16.89558 7.40635 -0.76737 14.9874 23.76862 23.19096 68.10494 4.95511 -11.06589 -24.16612 6.00116 -52.30162 85.96237 -115.91883 41.7389 -0.99877 82.21792 11.15466 -6.02502 2.00461 -22.58237 0.68497 -13.05553 126.24964 -4.80684 40.1762 -118.12057 -0.59263 1.08054 18.76853
0.10136 0.08168 0.01444 173.43277 0 -9.60523 -20.05179 13.50228 13.60918 44.6994 -16.91359 7.44016 -0.77408 14.99862 23.71641 23.19531 67.94139 4.99981 -11.0766 -24.17752 6.01262 -52.30214 85.96909 -115.97248 41.74166 -1.00645 82.21735 11.15343 -5.94328 2.00527 -22.59624 0.66322 -13.13358 126.38622 -4.96669 40.07075 -118.11579 -0.57013 0.82469 19.03248
